<svg viewBox="0 0 1867 1079" fill="none" xmlns="http://www.w3.org/2000/svg">
    <g filter="url(#filter0_d_306_1143)">
        <path d="M13.3412 780.269V87.6789L66.0349 35H801L833.5 11H940H1039L1069.5 35H1800.94L1853.62 87.6789V780.269M64.479 786.478V763.228L83.8465 743.86V673.37L50.9203 640.444V219.383M58.2849 95.4288L95.4639 58.235M95.4639 58.235H428.593M95.4639 58.235H801L833.5 88.5H940H1039L1069.5 58.235L1771.5 58.235M79.9789 973.346L122.581 1015.95H643.961M81.0015 1013.64L15.9346 948.555L14.5 822.5M24.1881 985.216L74.8073 1035.83H363.007M44.6819 198.549L57.7664 211.633M57.7664 198.549L44.6819 211.633M57.0699 796.45L70.1544 809.535M70.1544 796.45L57.0699 809.535M135.413 962.129L158.5 985.216M158.5 962.129L135.413 985.216M1802.5 786.478V763.228L1783.13 743.86V673.37L1816.06 640.444V219.383M1808.69 95.4288L1771.5 58.235M1771.5 58.235H1438.38M1787 1004.94L1744.39 1047.55H1223M1785.96 1045.23L1851.04 980.152L1852.6 821.597M1842.77 1016.81L1792.17 1067.43H1503.97M1822.29 198.549L1809.21 211.634M1809.21 198.549L1822.29 211.634M1809.89 796.45L1796.81 809.535M1796.81 796.45L1809.89 809.535M1692.5 949.919L1669.43 973.005M1669.43 949.919L1692.5 973.005M11 786.552H16.6457V792.198H11V786.552ZM11 797.532H16.6457V803.178H11V797.532ZM11 808.513H16.6457V814.158H11V808.513ZM53.1134 109.714H59.3074V115.908H53.1134V109.714ZM53.1134 121.761H59.3075V127.955H53.1134V121.761ZM53.1134 133.823H59.3075V140.017H53.1134V133.823ZM91.0174 20.9876H107.54V26.5H91.0174V20.9876ZM116.49 20.9876H133.012V26.5H116.49V20.9876ZM141.978 20.9876H158.5V26.5H141.978V20.9876ZM1855.96 792.198H1850.32V786.552H1855.96V792.198ZM1855.96 803.178H1850.32V797.532H1855.96V803.178ZM1855.96 814.158H1850.32V808.513H1855.96V814.158ZM1813.86 115.922H1807.67V109.728H1813.86V115.922ZM1813.86 127.97H1807.67V121.776H1813.86V127.97ZM1813.86 140.017H1807.67V133.823H1813.86V140.017ZM1433.5 26.5H1416.98V20.9876H1433.5V26.5ZM1408.03 26.5H1391.5V20.9876H1408.03V26.5ZM1382.54 26.5H1366.02V20.9876H1382.54V26.5Z" stroke="#07CE02" stroke-opacity="0.22" stroke-width="2" stroke-miterlimit="10" shape-rendering="crispEdges" />
    </g>
    <defs>
        <filter id="filter0_d_306_1143" x="0" y="0" width="1866.96" height="1078.43" filterUnits="userSpaceOnUse" color-interpolation-filters="sRGB">
            <feFlood flood-opacity="0" result="BackgroundImageFix" />
            <feColorMatrix in="SourceAlpha" type="matrix" values="0 0 0 0 0 0 0 0 0 0 0 0 0 0 0 0 0 0 127 0" result="hardAlpha" />
            <feOffset />
            <feGaussianBlur stdDeviation="5" />
            <feComposite in2="hardAlpha" operator="out" />
            <feColorMatrix type="matrix" values="0 0 0 0 0.027451 0 0 0 0 0.807843 0 0 0 0 0.00784314 0 0 0 0.25 0" />
            <feBlend mode="normal" in2="BackgroundImageFix" result="effect1_dropShadow_306_1143" />
            <feBlend mode="normal" in="SourceGraphic" in2="effect1_dropShadow_306_1143" result="shape" />
        </filter>
    </defs>
</svg>