 <svg width="1867" height="952" viewBox="0 0 1867 952" fill="none" xmlns="http://www.w3.org/2000/svg">
    <g filter="url(#filter0_d_306_1149)">
        <path d="M13.3412 653.337L13.3408 87.6789L66.0345 35H801L833.5 11H940H1039L1069.5 35H1800.94L1853.62 87.6789L1853.62 653.337M64.479 659.546V636.296L83.8465 616.929V546.438L50.9203 513.512L50.9199 219.383M58.2845 95.4288L95.4635 58.235M95.4635 58.235H428.593M95.4635 58.235H801L833.5 88.5H940H1039L1069.5 58.235L1771.5 58.235M79.9789 846.414L122.581 889.017H643.961M81.0015 886.705L15.9346 821.623L14.5 695.568M24.1881 858.284L74.8073 908.903H363.007M44.6815 198.549L57.766 211.633M57.766 198.549L44.6815 211.633M57.0699 669.519L70.1544 682.603M70.1544 669.519L57.0699 682.603M135.413 835.197L158.5 858.284M158.5 835.197L135.413 858.284M1802.5 659.546V636.296L1783.13 616.929V546.438L1816.06 513.512L1816.06 219.383M1808.69 95.4288L1771.5 58.235M1771.5 58.235H1438.38M1787 878.011L1744.39 920.614H1223M1785.96 918.302L1851.04 853.221L1852.6 694.665M1842.77 889.881L1792.17 940.5H1503.97M1822.29 198.549L1809.21 211.634M1809.21 198.549L1822.29 211.634M1809.89 669.519L1796.81 682.603M1796.81 669.519L1809.89 682.603M1692.5 822.987L1669.43 846.074M1669.43 822.987L1692.5 846.074M11 659.62H16.6457V665.266H11V659.62ZM11 670.6H16.6457V676.246H11V670.6ZM11 681.581H16.6457V687.227H11V681.581ZM53.113 109.714H59.307V115.908H53.113V109.714ZM53.113 121.761H59.3071V127.955H53.113V121.761ZM53.113 133.823H59.3071V140.017H53.113V133.823ZM91.017 20.9876H107.539V26.5H91.017V20.9876ZM116.49 20.9876H133.012V26.5H116.49V20.9876ZM141.977 20.9876H158.5V26.5H141.977V20.9876ZM1855.96 665.266H1850.32V659.62H1855.96V665.266ZM1855.96 676.246H1850.32V670.6H1855.96V676.246ZM1855.96 687.227H1850.32V681.581H1855.96V687.227ZM1813.86 115.922H1807.67V109.728H1813.86V115.922ZM1813.86 127.97H1807.67V121.776H1813.86V127.97ZM1813.86 140.017H1807.67V133.823H1813.86V140.017ZM1433.5 26.5H1416.98V20.9876H1433.5V26.5ZM1408.03 26.5H1391.5V20.9876H1408.03V26.5ZM1382.54 26.5H1366.02V20.9876H1382.54V26.5Z" stroke="#07CE02" stroke-opacity="0.22" stroke-width="2" stroke-miterlimit="10" shape-rendering="crispEdges" />
    </g>
    <defs>
        <filter id="filter0_d_306_1149" x="0" y="0" width="1866.96" height="951.5" filterUnits="userSpaceOnUse" color-interpolation-filters="sRGB">
            <feFlood flood-opacity="0" result="BackgroundImageFix" />
            <feColorMatrix in="SourceAlpha" type="matrix" values="0 0 0 0 0 0 0 0 0 0 0 0 0 0 0 0 0 0 127 0" result="hardAlpha" />
            <feOffset />
            <feGaussianBlur stdDeviation="5" />
            <feComposite in2="hardAlpha" operator="out" />
            <feColorMatrix type="matrix" values="0 0 0 0 0.027451 0 0 0 0 0.807843 0 0 0 0 0.00784314 0 0 0 0.25 0" />
            <feBlend mode="normal" in2="BackgroundImageFix" result="effect1_dropShadow_306_1149" />
            <feBlend mode="normal" in="SourceGraphic" in2="effect1_dropShadow_306_1149" result="shape" />
        </filter>
    </defs>
</svg> 