                <svg width="422" height="878" viewBox="0 0 422 878" fill="none" xmlns="http://www.w3.org/2000/svg">
                    <g filter="url(#filter0_d_306_1153)">
                        <path d="M13.3412 592.272L13.3408 87.6789L66.0345 35H134L166.5 11H210.5H254L284.5 35H355.125L407.804 87.6789L407.804 592.272M64.479 598.481V575.231L83.8465 555.864V485.374L50.9203 452.447L50.9199 219.383M58.2845 95.4288L95.4635 58.235H134L166.5 88.5H210.5H254L284.5 58.235H325.682L362.876 95.4288M79.9789 772.082L122.581 814.685H166.5M81.0015 812.373L15.9346 747.291L14.5 634.504M24.1881 783.952L74.8073 834.571H93.5M44.6815 198.549L57.766 211.633M57.766 198.549L44.6815 211.633M57.0699 608.454L70.1544 621.538M70.1544 608.454L57.0699 621.538M135.413 760.865L158.5 783.952M158.5 760.865L135.413 783.952M356.682 598.481V575.232L337.314 555.864V485.374L370.24 452.448L370.24 219.383M341.182 803.679L298.579 846.282H223.613M340.145 843.97L405.226 778.888L406.782 633.601M396.958 815.549L346.353 866.168H298.579M376.479 198.549L363.394 211.634M363.394 198.549L376.479 211.634M364.076 608.454L350.991 621.539M350.991 608.454L364.076 621.539M246.684 748.655L223.613 771.742M223.613 748.655L246.684 771.742M11 598.555H16.6457V604.201H11V598.555ZM11 609.536H16.6457V615.182H11V609.536ZM11 620.516H16.6457V626.162H11V620.516ZM53.113 109.714H59.307V115.908H53.113V109.714ZM53.113 121.761H59.3071V127.955H53.113V121.761ZM53.113 133.823H59.3071V140.017H53.113V133.823ZM72.0174 20.9876H88.5398V26.5H72.0174V20.9876ZM97.4899 20.9876H114.012V26.5H97.4899V20.9876ZM410.146 604.201H404.5V598.555H410.146V604.201ZM410.146 615.181H404.5V609.536H410.146V615.181ZM410.146 626.162H404.5V620.516H410.146V626.162ZM368.047 115.922H361.853V109.728H368.047V115.922ZM368.047 127.97H361.853V121.776H368.047V127.97ZM368.047 140.017H361.853V133.823H368.047V140.017ZM330.522 26.5H314V20.9876H330.522V26.5ZM305.05 26.5H288.527V20.9876H305.05V26.5Z" stroke="#07CE02" stroke-opacity="0.22" stroke-width="2" stroke-miterlimit="10" shape-rendering="crispEdges" />
                    </g>
                    <defs>
                        <filter id="filter0_d_306_1153" x="0" y="0" width="421.146" height="877.168" filterUnits="userSpaceOnUse" color-interpolation-filters="sRGB">
                            <feFlood flood-opacity="0" result="BackgroundImageFix" />
                            <feColorMatrix in="SourceAlpha" type="matrix" values="0 0 0 0 0 0 0 0 0 0 0 0 0 0 0 0 0 0 127 0" result="hardAlpha" />
                            <feOffset />
                            <feGaussianBlur stdDeviation="5" />
                            <feComposite in2="hardAlpha" operator="out" />
                            <feColorMatrix type="matrix" values="0 0 0 0 0.027451 0 0 0 0 0.807843 0 0 0 0 0.00784314 0 0 0 0.25 0" />
                            <feBlend mode="normal" in2="BackgroundImageFix" result="effect1_dropShadow_306_1153" />
                            <feBlend mode="normal" in="SourceGraphic" in2="effect1_dropShadow_306_1153" result="shape" />
                        </filter>
                    </defs>
                </svg>