<svg viewBox="0 0 925 526" fill="none" xmlns="http://www.w3.org/2000/svg">
    <g filter="url(#filter0_d_255_1308)">
        <path d="M912.854 180.456V36.7161L887.064 11H550M183.28 11H37.9292L12.1461 36.7161V374.816M890.857 40.4994L872.66 22.3426M872.66 22.3426H774.271M872.66 22.3426H592M880.239 469.07L859.387 489.868H604.203M879.738 488.739L911.585 456.968L912.287 201.072M907.545 474.865L882.77 499.575H741.713M34.1359 40.4994L52.34 22.3426M52.34 22.3426H215.38M52.34 22.3426H286M44.7538 484.495L65.6052 505.292H320.797M45.2614 504.164L13.4078 472.393L12.6462 394.991M17.455 490.289L42.2227 515H183.28M914 183.523H911.237V186.28H914V183.523ZM914 188.884H911.237V191.64H914V188.884ZM914 194.244H911.237V197H914V194.244ZM893.388 308.476H890.356V311.5H893.388V308.476ZM893.388 314.357H890.356V317.381H893.388V314.357ZM893.388 320.246H890.356V323.269H893.388V320.246ZM11 380.64H13.7633V377.883H11V380.64ZM11 386H13.7633V383.244H11V386ZM11 391.36H13.7633V388.604H11V391.36ZM31.6047 449.262H34.6364V446.238H31.6047V449.262ZM31.6047 455.143H34.6364V452.119H31.6047V455.143ZM31.6047 461.024H34.6364V458H31.6047V461.024Z" stroke="#07CE02" strokeOpacity="0.22" strokeWidth="2" strokeMiterlimit="10" shapeRendering="crispEdges" />
    </g>
    <defs>
        <filter id="filter0_d_255_1308" x="0" y="0" width="925" height="526" filterUnits="userSpaceOnUse" colorInterpolationFilters="sRGB">
            <feFlood floodOpacity="0" result="BackgroundImageFix" />
            <feColorMatrix in="SourceAlpha" type="matrix" values="0 0 0 0 0 0 0 0 0 0 0 0 0 0 0 0 0 0 127 0" result="hardAlpha" />
            <feOffset />
            <feGaussianBlur stdDeviation="5" />
            <feComposite in2="hardAlpha" operator="out" />
            <feColorMatrix type="matrix" values="0 0 0 0 0.027451 0 0 0 0 0.807843 0 0 0 0 0.00784314 0 0 0 0.25 0" />
            <feBlend mode="normal" in2="BackgroundImageFix" result="effect1_dropShadow_255_1308" />
            <feBlend mode="normal" in="SourceGraphic" in2="effect1_dropShadow_255_1308" result="shape" />
        </filter>
    </defs>
</svg>