<svg width="335" height="435" viewBox="0 0 335 435" fill="none" xmlns="http://www.w3.org/2000/svg">
    <g filter="url(#filter0_d_315_1920)">
        <path d="M322.117 118.677V36.7162L296.326 11L185.593 11M65.6051 11.0001H37.9288L12.1458 36.7162L12.1459 283.571M300.12 40.4994L281.923 22.3426L227.593 22.3426M289.502 377.825L268.65 398.622H185.593M289.001 397.493L320.848 365.723L321.55 139.293M316.808 383.619L292.033 408.33H227.593M34.1356 40.4995L52.3398 22.3426H106M44.7537 393.249L65.6052 414.047H119M45.2613 412.918L13.4076 381.147L12.646 303.746M17.4547 399.044L42.2226 423.754H87.7799M323.263 121.744H320.499V124.5H323.263V121.744ZM323.263 127.104H320.499V129.86H323.263V127.104ZM323.263 132.464H320.499V135.22H323.263V132.464ZM302.651 217.231H299.619V220.254H302.651V217.231ZM302.651 223.112H299.619V226.135H302.651V223.112ZM302.651 229H299.619V232.024H302.651V229ZM10.9998 289.394H13.7631V286.638H10.9998V289.394ZM10.9998 294.754H13.7631V291.998H10.9998V294.754ZM10.9998 300.114H13.7631V297.358H10.9998V300.114ZM31.6045 358.016H34.6361V354.992H31.6045V358.016ZM31.6045 363.897H34.6361V360.873H31.6045V363.897ZM31.6045 369.778H34.6361V366.754H31.6045V369.778Z" stroke="#07CE02" strokeOpacity="0.22" strokeWidth="2" strokeMiterlimit="10" shapeRendering="crispEdges" />
    </g>
    <defs>
        <filter id="filter0_d_315_1920" x="0" y="0" width="334.263" height="434.754" filterUnits="userSpaceOnUse" colorInterpolationFilters="sRGB">
            <feFlood floodOpacity="0" result="BackgroundImageFix" />
            <feColorMatrix in="SourceAlpha" type="matrix" values="0 0 0 0 0 0 0 0 0 0 0 0 0 0 0 0 0 0 127 0" result="hardAlpha" />
            <feOffset />
            <feGaussianBlur stdDeviation="5" />
            <feComposite in2="hardAlpha" operator="out" />
            <feColorMatrix type="matrix" values="0 0 0 0 0.027451 0 0 0 0 0.807843 0 0 0 0 0.00784314 0 0 0 0.25 0" />
            <feBlend mode="normal" in2="BackgroundImageFix" result="effect1_dropShadow_315_1920" />
            <feBlend mode="normal" in="SourceGraphic" in2="effect1_dropShadow_315_1920" result="shape" />
        </filter>
    </defs>
</svg>